<svg xmlns="http://www.w3.org/2000/svg" xmlns:xlink="http://www.w3.org/1999/xlink" width="272" height="272" viewBox="0 0 272 272"><defs><linearGradient id="a" x1="219.43" y1="231.45" x2="227.41" y2="228.06" gradientUnits="userSpaceOnUse"><stop offset="0.1" stop-color="#888"/><stop offset="0.9" stop-color="#eee"/></linearGradient><linearGradient id="b" x1="43" y1="-135" x2="61" y2="-135" gradientTransform="translate(0 256)" gradientUnits="userSpaceOnUse"><stop offset="0" stop-color="#964b00" stop-opacity="0"/><stop offset="1" stop-color="#964b00"/></linearGradient></defs><title>folder</title><path d="M223,55V27a8,8,0,0,0-8-8H46c-10,0-15.06,6.21-15,15V226a27.33,27.33,0,0,0,2,9.65C38.46,248.89,50.77,253,64,253H233a8,8,0,0,0,8-8V63a8,8,0,0,0-8-8Z" fill="#703100" style="isolation:isolate"/><path d="M230,234.7V67c0-3.5-.59-5.48-2.3-9.62C224.88,50.6,223,46,223,46V215a8,8,0,0,1-.27,2Z" fill="#eee"/><path d="M216.05,222.92A7.2,7.2,0,0,1,215,223l-169,.35c-2,0-1.46,4.53-1,6.65,1.36,6.62,8.55,12,15.17,12H223.91Z" fill="#888"/><path d="M222.73,217a8,8,0,0,1-6.68,5.88L223.91,242H224a6,6,0,0,0,6-6v-1.3Z" fill="url(#a)"/><path d="M61,22H214a6,6,0,0,1,6,6V214a6,6,0,0,1-6,6H61Z" fill="#964b00" style="isolation:isolate"/><rect x="43" y="22" width="18" height="198" fill="url(#b)"/><rect x="87.8" y="65" width="92.4" height="66" fill="#a86420" style="isolation:isolate"/></svg>