<svg xmlns="http://www.w3.org/2000/svg" xmlns:xlink="http://www.w3.org/1999/xlink" width="64" height="64" viewBox="0 0 64 64"><defs><linearGradient id="a" x1="12" y1="245" x2="16" y2="245" gradientTransform="matrix(1, 0, 0, -1, 0, 272)" gradientUnits="userSpaceOnUse"><stop offset="0" stop-color="#964b00" stop-opacity="0"/><stop offset="1" stop-color="#964b00"/></linearGradient></defs><title>folder-s-book</title><path d="M50,18V6H13C9.65,6,8,8.07,8,11V49a9.29,9.29,0,0,0,.66,3.21C10.49,56.63,14.59,58,19,58H56V18Z" fill="#703100"/><polygon points="50 14.52 50 48 49 48 52 54 52 19.71 50 14.52" fill="#eee"/><path d="M49,48H13c-.67,0-.49,1.51-.34,2.21a5.16,5.16,0,0,0,5,3.79H52Z" fill="#888"/><rect x="16" y="7" width="33" height="40" fill="#964b00"/><rect x="12" y="7" width="4" height="40" fill="url(#a)"/><rect x="22" y="16" width="18" height="12" fill="#a86420"/></svg>