<?xml version="1.0" standalone="no"?>
<!DOCTYPE svg PUBLIC "-//W3C//DTD SVG 20010904//EN"
 "http://www.w3.org/TR/2001/REC-SVG-20010904/DTD/svg10.dtd">
<svg version="1.0" xmlns="http://www.w3.org/2000/svg"
 width="700.000000pt" height="700.000000pt" viewBox="0 0 700.000000 700.000000"
 preserveAspectRatio="xMidYMid meet">
<metadata>
Created by potrace 1.11, written by Peter Selinger 2001-2013
</metadata>
<g transform="translate(0.000000,700.000000) scale(0.100000,-0.100000)"
fill="#000000" stroke="none">
<path d="M3428 3374 l-3 -2469 -73 103 -74 102 -1369 0 -1369 0 0 2301 0 2300
-147 -3 c-136 -3 -153 -5 -205 -30 -66 -31 -127 -90 -159 -156 l-24 -47 -3
-2337 -2 -2337 21 -56 c29 -78 106 -155 182 -183 l58 -22 3239 0 3239 0 58 22
c76 28 153 105 182 183 l21 56 -2 2337 -3 2337 -27 52 c-37 70 -89 120 -157
152 -51 24 -69 26 -203 29 l-148 3 0 -2300 0 -2301 -1372 -2 -1372 -3 -106
-150 -105 -150 -3 2473 -2 2473 -35 46 -35 46 -2 -2469z"/>
<path d="M867 5573 c-4 -3 -7 -363 -7 -800 l0 -793 1129 0 1130 0 3 793 c2
435 2 795 0 800 -4 9 -2246 10 -2255 0z"/>
<path d="M4250 5495 l0 -55 730 0 730 0 0 55 0 55 -730 0 -730 0 0 -55z"/>
<path d="M4254 5216 c-3 -7 -4 -33 -2 -57 l3 -44 728 -3 728 -2 -3 57 -3 58
-723 3 c-610 2 -723 0 -728 -12z"/>
<path d="M4250 4845 l0 -55 730 0 730 0 0 55 0 55 -730 0 -730 0 0 -55z"/>
<path d="M4250 4065 l0 -375 325 0 325 0 0 375 0 375 -325 0 -325 0 0 -375z"/>
<path d="M5060 4065 l0 -375 325 0 325 0 0 375 0 375 -325 0 -325 0 0 -375z"/>
<path d="M1320 3555 l0 -85 80 0 c79 0 80 0 80 -25 0 -25 -1 -25 -80 -25 l-80
0 0 -30 0 -31 108 3 107 3 3 83 3 82 -81 0 c-79 0 -80 0 -80 25 0 25 1 25 81
25 l80 0 -3 28 -3 27 -107 3 -108 3 0 -86z"/>
<path d="M1617 3633 c-4 -3 -7 -17 -7 -30 0 -20 5 -23 40 -23 l39 0 3 -107 3
-108 28 -3 27 -3 0 110 0 111 40 0 c38 0 40 2 40 30 l0 30 -103 0 c-57 0 -107
-3 -110 -7z"/>
<path d="M1910 3500 l0 -140 110 0 110 0 0 140 0 140 -110 0 -110 0 0 -140z
m160 0 l0 -80 -50 0 -50 0 0 80 0 80 50 0 50 0 0 -80z"/>
<path d="M2204 3627 c-2 -7 -3 -69 -2 -138 l3 -124 28 -3 c27 -3 27 -2 27 52
0 52 2 56 23 56 18 0 29 -12 50 -55 24 -49 30 -55 57 -55 35 0 37 8 10 60 -25
49 -25 48 3 52 21 3 22 8 22 83 l0 80 -108 3 c-82 2 -109 0 -113 -11z m166
-72 c0 -24 -3 -25 -55 -25 -52 0 -55 1 -55 25 0 24 3 25 55 25 52 0 55 -1 55
-25z"/>
<path d="M2500 3555 l0 -85 40 0 40 0 0 -55 c0 -54 0 -55 30 -55 30 0 30 1 30
55 l0 55 40 0 40 0 0 86 0 85 -27 -3 c-26 -3 -28 -7 -31 -55 l-3 -53 -50 0
-49 0 0 55 c0 54 0 55 -30 55 l-30 0 0 -85z"/>
<path d="M4255 3517 c-3 -6 -4 -176 -3 -377 l3 -365 323 -3 322 -2 0 380 0
380 -320 0 c-248 0 -322 -3 -325 -13z"/>
<path d="M5065 3518 c-3 -7 -4 -177 -3 -378 l3 -365 320 0 320 0 0 375 0 375
-318 3 c-249 2 -319 0 -322 -10z"/>
<path d="M1290 3045 l0 -55 730 0 730 0 0 55 0 55 -730 0 -730 0 0 -55z"/>
<path d="M1297 2773 c-4 -3 -7 -30 -7 -60 l0 -53 728 2 727 3 0 55 0 55 -721
3 c-396 1 -724 -1 -727 -5z"/>
<path d="M1290 2395 l0 -55 730 0 730 0 0 55 0 55 -730 0 -730 0 0 -55z"/>
<path d="M4250 2395 l0 -55 730 0 730 0 0 55 0 55 -730 0 -730 0 0 -55z"/>
<path d="M1290 2075 l0 -55 730 0 730 0 0 55 0 55 -730 0 -730 0 0 -55z"/>
<path d="M4250 2075 l0 -55 730 0 730 0 0 55 0 55 -730 0 -730 0 0 -55z"/>
<path d="M1294 1796 c-3 -7 -4 -33 -2 -57 l3 -44 725 0 725 0 0 55 0 55 -723
3 c-610 2 -723 0 -728 -12z"/>
<path d="M4254 1796 c-3 -7 -4 -33 -2 -57 l3 -44 725 0 725 0 0 55 0 55 -723
3 c-610 2 -723 0 -728 -12z"/>
</g>
</svg>
